<svg id="Layer_1" data-name="Layer 1" xmlns="http://www.w3.org/2000/svg" viewBox="0 0 15 15"><defs><style>.cls-1{fill:#fff;}.cls-2{fill:#0024ff;}</style></defs><circle class="cls-1" cx="7.5" cy="7.5" r="6"/><path class="cls-2" d="M7.5,2A5.5,5.5,0,1,1,2,7.5,5.51,5.51,0,0,1,7.5,2m0-1A6.5,6.5,0,1,0,14,7.5,6.5,6.5,0,0,0,7.5,1Z"/><path class="cls-2" d="M6.77,7.88A2.12,2.12,0,0,1,7.15,6.5,1.45,1.45,0,0,1,8.31,6a1.5,1.5,0,0,1,1.21.5A2,2,0,0,1,10,7.94a6.36,6.36,0,0,1-.16,1.44l-1.27,0V9.07l.84-.2a1.51,1.51,0,0,0,.14-.38,1.46,1.46,0,0,0,.05-.4q0-.9-1.2-.9a1.41,1.41,0,0,0-.9.23.88.88,0,0,0-.28.73,1.25,1.25,0,0,0,.1.51l.05.12v.39H4.63V6.44H5.5v2.3H6.88A4.13,4.13,0,0,1,6.77,7.88Z"/></svg>