<?xml version="1.0" encoding="utf-8"?>
<!-- Generator: Adobe Illustrator 25.2.3, SVG Export Plug-In . SVG Version: 6.00 Build 0)  -->
<svg version="1.1" id="Layer_1" xmlns="http://www.w3.org/2000/svg" xmlns:xlink="http://www.w3.org/1999/xlink" x="0px" y="0px"
	 viewBox="0 0 15 15" style="enable-background:new 0 0 15 15;" xml:space="preserve">
<style type="text/css">
	.st0{fill:#FFFFFF;}
	.st1{fill:#0024FF;}
</style>
<circle class="st0" cx="7.5" cy="7.5" r="6"/>
<path class="st1" d="M13,7.5c0,3-2.5,5.5-5.5,5.5S2,10.5,2,7.5S4.5,2,7.5,2C10.5,2,13,4.5,13,7.5 M14,7.5C14,3.9,11.1,1,7.5,1
	S1,3.9,1,7.5S3.9,14,7.5,14S14,11.1,14,7.5z"/>
<path class="st1" d="M7.1,6.8c0.5,0,1,0.1,1.4,0.4C8.8,7.4,9,7.9,9,8.3c0,0.5-0.2,0.9-0.5,1.2C8.1,9.9,7.6,10,7.1,10
	c-0.5,0-1-0.1-1.4-0.2V8.6h0.3l0.2,0.8c0.1,0.1,0.2,0.1,0.4,0.1c0.1,0,0.3,0.1,0.4,0.1c0.6,0,0.9-0.4,0.9-1.2c0-0.3-0.1-0.6-0.2-0.9
	C7.4,7.3,7.1,7.2,6.9,7.2c-0.2,0-0.3,0-0.5,0.1L6.2,7.4H5.8V4.6h2.7v0.9H6.3v1.4C6.5,6.8,6.8,6.8,7.1,6.8z"/>
</svg>
