<?xml version="1.0" encoding="utf-8"?>
<!-- Generator: Adobe Illustrator 25.2.3, SVG Export Plug-In . SVG Version: 6.00 Build 0)  -->
<svg version="1.1" id="Layer_1" xmlns="http://www.w3.org/2000/svg" xmlns:xlink="http://www.w3.org/1999/xlink" x="0px" y="0px"
	 viewBox="0 0 15 15" style="enable-background:new 0 0 15 15;" xml:space="preserve">
<style type="text/css">
	.st0{fill:#FFFFFF;}
	.st1{fill:#0024FF;}
</style>
<circle class="st0" cx="7.5" cy="7.5" r="6"/>
<path class="st1" d="M13,7.5c0,3-2.5,5.5-5.5,5.5S2,10.5,2,7.5S4.5,2,7.5,2C10.5,2,13,4.5,13,7.5 M14,7.5C14,3.9,11.1,1,7.5,1
	S1,3.9,1,7.5S3.9,14,7.5,14S14,11.1,14,7.5z"/>
<path class="st1" d="M8.6,8.8v1h-1v-1H5.4V8.2l2.4-3.6h0.9V8h0.5v0.8L8.6,8.8z M7.6,6.5c0-0.3,0-0.6,0-0.8L6,8h1.5L7.6,6.5z"/>
</svg>
