<svg id="Layer_1" data-name="Layer 1" xmlns="http://www.w3.org/2000/svg" viewBox="0 0 15 15"><defs><style>.cls-1{fill:#fff;}.cls-2{fill:#0024ff;}</style></defs><circle class="cls-1" cx="7.5" cy="7.5" r="6"/><path class="cls-2" d="M7.5,2A5.5,5.5,0,1,1,2,7.5,5.51,5.51,0,0,1,7.5,2m0-1A6.5,6.5,0,1,0,14,7.5,6.5,6.5,0,0,0,7.5,1Z"/><path class="cls-2" d="M8.24,6a1.79,1.79,0,0,1,1.27.42A1.63,1.63,0,0,1,10,7.62,1.58,1.58,0,0,1,9.26,9a3.4,3.4,0,0,1-2,.48,3.92,3.92,0,0,1-1.45-.25,2.16,2.16,0,0,1-.94-.71,1.78,1.78,0,0,1-.32-1A4.21,4.21,0,0,1,4.74,6.3H5.93v.34l-.76.17A1,1,0,0,0,5,7.4c0,.26.17.47.5.64a3.74,3.74,0,0,0,1.4.28,2.12,2.12,0,0,1-.18-.84,1.43,1.43,0,0,1,.4-1.1A1.59,1.59,0,0,1,8.24,6ZM9.55,7.64a.41.41,0,0,0-.31-.4,3,3,0,0,0-.92-.11,1.92,1.92,0,0,0-.85.16.48.48,0,0,0-.3.45,2.06,2.06,0,0,0,.09.59h0C8.8,8.33,9.55,8.1,9.55,7.64Z"/></svg>