<?xml version="1.0" encoding="utf-8"?>
<!-- Generator: Adobe Illustrator 25.2.3, SVG Export Plug-In . SVG Version: 6.00 Build 0)  -->
<svg version="1.1" id="Layer_1" xmlns="http://www.w3.org/2000/svg" xmlns:xlink="http://www.w3.org/1999/xlink" x="0px" y="0px"
	 viewBox="0 0 15 15" style="enable-background:new 0 0 15 15;" xml:space="preserve">
<style type="text/css">
	.st0{fill:#FFFFFF;}
	.st1{fill:#0024FF;}
</style>
<circle class="st0" cx="7.5" cy="7.5" r="6"/>
<path class="st1" d="M13,7.5c0,3-2.5,5.5-5.5,5.5S2,10.5,2,7.5S4.5,2,7.5,2C10.5,2,13,4.5,13,7.5 M14,7.5C14,3.9,11.1,1,7.5,1
	S1,3.9,1,7.5S3.9,14,7.5,14S14,11.1,14,7.5z"/>
<path class="st1" d="M9,8.2c0,0.5-0.1,0.9-0.4,1.3C8.3,9.8,7.8,10,7.4,10C6.8,10,6.3,9.7,6,9.3C5.6,8.7,5.5,8,5.5,7.3
	c0-0.5,0.1-1,0.2-1.4c0.1-0.4,0.4-0.7,0.7-0.9c0.3-0.2,0.6-0.3,1-0.3c0.4,0,0.8,0.1,1.2,0.2v1.2H8.4L8.2,5.2C8,5.1,7.8,5,7.6,5
	C7.3,5,7.1,5.2,7,5.5C6.8,5.9,6.7,6.4,6.7,6.9c0.3-0.1,0.6-0.2,0.8-0.2c0.4,0,0.8,0.1,1.1,0.4C8.9,7.4,9,7.8,9,8.2z M7.4,9.6
	c0.2,0,0.4-0.1,0.4-0.3c0.1-0.3,0.1-0.6,0.1-0.9c0-0.3,0-0.6-0.2-0.8C7.6,7.3,7.5,7.2,7.3,7.2c-0.2,0-0.4,0-0.6,0.1l0,0
	C6.7,8.8,6.9,9.6,7.4,9.6z"/>
</svg>
