<svg id="Layer_1" data-name="Layer 1" xmlns="http://www.w3.org/2000/svg" viewBox="0 0 15 15"><defs><style>.cls-1{fill:#fff;}.cls-2{fill:#0024ff;}</style></defs><circle class="cls-1" cx="7.5" cy="7.5" r="6"/><path class="cls-2" d="M7.5,2A5.5,5.5,0,1,1,2,7.5,5.51,5.51,0,0,1,7.5,2m0-1A6.5,6.5,0,1,0,14,7.5,6.5,6.5,0,0,0,7.5,1Z"/><path class="cls-2" d="M9.87,6.1V9.42H9.13l-.64-.63c-.41-.41-.74-.72-1-.91a2.51,2.51,0,0,0-.74-.42,2.54,2.54,0,0,0-.86-.14,1.09,1.09,0,0,0-.69.21A.68.68,0,0,0,5,8.08a1.37,1.37,0,0,0,0,.39,1,1,0,0,0,.15.26l.76.17v.34H4.74c0-.21-.09-.41-.12-.61a4.4,4.4,0,0,1,0-.65,2.08,2.08,0,0,1,.36-1.32,1.18,1.18,0,0,1,1-.46,2,2,0,0,1,.74.13,2,2,0,0,1,.65.44,12.12,12.12,0,0,1,1,1.17c.18.22.38.47.62.73V6.1Z"/></svg>