<svg id="Layer_1" data-name="Layer 1" xmlns="http://www.w3.org/2000/svg" viewBox="0 0 15 15"><defs><style>.cls-1{fill:#fff;}.cls-2{fill:#0024ff;}</style></defs><circle class="cls-1" cx="7.5" cy="7.5" r="6"/><path class="cls-2" d="M7.5,2A5.5,5.5,0,1,1,2,7.5,5.51,5.51,0,0,1,7.5,2m0-1A6.5,6.5,0,1,0,14,7.5,6.5,6.5,0,0,0,7.5,1Z"/><path class="cls-2" d="M8.44,6a1.32,1.32,0,0,1,1.11.52A2.22,2.22,0,0,1,10,8,6.42,6.42,0,0,1,9.79,9.4l-1.27,0V9.09l.84-.2a1.43,1.43,0,0,0,.19-.71.94.94,0,0,0-.3-.74,1.22,1.22,0,0,0-.85-.27,1.05,1.05,0,0,0-.72.22.92.92,0,0,0-.28.69l0,.45H6.9l0-.44a.67.67,0,0,0-.26-.51,1.2,1.2,0,0,0-.7-.17,1.11,1.11,0,0,0-.69.2A.66.66,0,0,0,5,8.17.73.73,0,0,0,5,8.52c0,.08.08.17.13.25l.76.17v.34H4.74a4.75,4.75,0,0,1-.13-.69,3.64,3.64,0,0,1,0-.57c0-1.17.43-1.76,1.29-1.76a1.27,1.27,0,0,1,.86.28,1.31,1.31,0,0,1,.41.81C7.23,6.46,7.67,6,8.44,6Z"/></svg>