<?xml version="1.0" encoding="utf-8"?>
<!-- Generator: Adobe Illustrator 25.2.3, SVG Export Plug-In . SVG Version: 6.00 Build 0)  -->
<svg version="1.1" id="Layer_1" xmlns="http://www.w3.org/2000/svg" xmlns:xlink="http://www.w3.org/1999/xlink" x="0px" y="0px"
	 viewBox="0 0 15 15" style="enable-background:new 0 0 15 15;" xml:space="preserve">
<style type="text/css">
	.st0{fill:#FFFFFF;}
	.st1{fill:#0024FF;}
</style>
<circle class="st0" cx="7.5" cy="7.5" r="6"/>
<path class="st1" d="M13,7.5c0,3-2.5,5.5-5.5,5.5S2,10.5,2,7.5S4.5,2,7.5,2C10.5,2,13,4.5,13,7.5 M14,7.5C14,3.9,11.1,1,7.5,1
	S1,3.9,1,7.5S3.9,14,7.5,14S14,11.1,14,7.5z"/>
<path class="st1" d="M9,8.4c0,0.4-0.2,0.8-0.5,1.1C8.1,9.9,7.5,10,7,10c-0.5,0-0.9-0.1-1.4-0.2V8.5h0.3l0.2,0.8
	c0.2,0.1,0.5,0.2,0.7,0.2c0.3,0,0.6-0.1,0.7-0.3C7.8,9,7.9,8.7,7.8,8.4c0-0.3-0.1-0.5-0.2-0.7C7.4,7.5,7.2,7.4,6.9,7.4H6.5V6.9h0.4
	c0.2,0,0.4-0.1,0.5-0.3c0.1-0.2,0.2-0.5,0.2-0.7c0-0.2-0.1-0.5-0.2-0.7C7.3,5.1,7,5,6.8,5C6.7,5,6.6,5,6.5,5C6.4,5,6.3,5.1,6.2,5.1
	L6.1,5.9H5.7V4.7c0.2-0.1,0.5-0.1,0.7-0.1c0.2,0,0.4,0,0.6,0c1.2,0,1.8,0.4,1.8,1.3c0,0.3-0.1,0.6-0.3,0.9C8.2,7,8,7.1,7.6,7.2
	C8.5,7.2,9,7.7,9,8.4z"/>
</svg>
